<svg width="830" height="281" viewBox="0 0 830 281" fill="none" xmlns="http://www.w3.org/2000/svg">
<g clip-path="url(#clip0_3_311)">
<mask id="path-1-outside-1_3_311" maskUnits="userSpaceOnUse" x="0" y="22" width="831" height="107" fill="black">
<rect fill="white" y="22" width="831" height="107"/>
<path d="M65.893 26.232C77.5837 26.232 88.1223 28.408 97.509 32.76C106.981 37.0267 114.362 42.9573 119.653 50.552C125.029 58.0613 127.717 66.552 127.717 76.024C127.717 85.4107 125.029 93.8587 119.653 101.368C114.362 108.877 107.024 114.808 97.637 119.16C88.2503 123.427 77.7117 125.56 66.021 125.56C54.757 125.56 44.3463 123.427 34.789 119.16C25.2317 114.808 17.637 108.877 12.005 101.368C6.45833 93.7733 3.685 85.3253 3.685 76.024C3.685 66.6373 6.45833 58.1467 12.005 50.552C17.637 42.9573 25.189 37.0267 34.661 32.76C44.2183 28.408 54.629 26.232 65.893 26.232ZM66.021 101.624C70.7997 101.624 75.365 100.6 79.717 98.552C84.1543 96.504 87.7383 93.56 90.469 89.72C93.1997 85.88 94.565 81.3147 94.565 76.024C94.565 70.7333 93.157 66.168 90.341 62.328C87.6103 58.4027 84.0263 55.4587 79.589 53.496C75.1517 51.448 70.5437 50.424 65.765 50.424C60.901 50.424 56.293 51.448 51.941 53.496C47.589 55.544 44.0477 58.5307 41.317 62.456C38.6717 66.296 37.349 70.8187 37.349 76.024C37.349 81.3147 38.7143 85.88 41.445 89.72C44.1757 93.56 47.717 96.504 52.069 98.552C56.5063 100.6 61.157 101.624 66.021 101.624ZM204.874 66.68C213.237 66.68 220.533 67.2773 226.762 68.472C233.077 69.5813 238.325 72.0133 242.506 75.768C246.773 79.5227 248.906 84.984 248.906 92.152C248.906 105.379 243.018 114.339 231.242 119.032C219.551 123.64 206.41 125.944 191.818 125.944C177.311 125.944 163.871 123.597 151.498 118.904C139.125 114.125 132.938 105.08 132.938 91.768L165.578 91.64C165.578 97.528 168.223 101.283 173.514 102.904C178.89 104.44 185.162 105.208 192.33 105.208C199.071 105.208 204.831 104.227 209.61 102.264C214.474 100.301 216.906 97.1013 216.906 92.664V92.536C216.906 90.0613 215.413 88.2267 212.426 87.032C209.439 85.8373 206.239 85.112 202.826 84.856C199.413 84.6 195.317 84.4293 190.538 84.344H180.938C171.722 84.344 163.701 83.7893 156.874 82.68C150.133 81.4853 144.458 78.9253 139.85 75C135.242 71.0747 132.938 65.272 132.938 57.592C132.938 44.28 138.911 35.6187 150.858 31.608C162.89 27.512 176.543 25.464 191.818 25.464C206.154 25.464 219.253 27.8107 231.114 32.504C242.975 37.1973 248.906 46.2427 248.906 59.64H216.778C216.778 55.3733 214.346 52.216 209.482 50.168C204.703 48.0347 198.858 46.84 191.946 46.584C184.522 46.584 178.25 47.4373 173.13 49.144C168.01 50.8507 165.45 53.5387 165.45 57.208C165.45 61.048 168.053 63.608 173.258 64.888C178.463 66.168 184.351 66.808 190.922 66.808L204.874 66.68ZM392.169 28.28V123H360.681V80.248L339.817 123H310.761L288.489 79.736V123H256.873V28.28H292.969L325.225 93.432L356.969 28.28H392.169ZM434.364 123H402.748V28.28H434.364V123ZM476.489 123H444.873V28.28L476.489 123ZM565.833 123H534.345H565.833ZM534.345 86.264V28.28H565.833V123H534.345L476.489 65.016V123H444.873V28.28H476.489L534.345 86.264ZM636.018 26.232C647.709 26.232 658.247 28.408 667.634 32.76C677.106 37.0267 684.487 42.9573 689.778 50.552C695.154 58.0613 697.842 66.552 697.842 76.024C697.842 85.4107 695.154 93.8587 689.778 101.368C684.487 108.877 677.149 114.808 667.762 119.16C658.375 123.427 647.837 125.56 636.146 125.56C624.882 125.56 614.471 123.427 604.914 119.16C595.357 114.808 587.762 108.877 582.13 101.368C576.583 93.7733 573.81 85.3253 573.81 76.024C573.81 66.6373 576.583 58.1467 582.13 50.552C587.762 42.9573 595.314 37.0267 604.786 32.76C614.343 28.408 624.754 26.232 636.018 26.232ZM636.146 101.624C640.925 101.624 645.49 100.6 649.842 98.552C654.279 96.504 657.863 93.56 660.594 89.72C663.325 85.88 664.69 81.3147 664.69 76.024C664.69 70.7333 663.282 66.168 660.466 62.328C657.735 58.4027 654.151 55.4587 649.714 53.496C645.277 51.448 640.669 50.424 635.89 50.424C631.026 50.424 626.418 51.448 622.066 53.496C617.714 55.544 614.173 58.5307 611.442 62.456C608.797 66.296 607.474 70.8187 607.474 76.024C607.474 81.3147 608.839 85.88 611.57 89.72C614.301 93.56 617.842 96.504 622.194 98.552C626.631 100.6 631.282 101.624 636.146 101.624ZM827.095 123H807.255L804.823 115.704C794.071 122.275 781.271 125.56 766.423 125.56C754.647 125.56 743.938 123.384 734.295 119.032C724.652 114.68 717.015 108.707 711.383 101.112C705.836 93.5173 703.063 85.0693 703.063 75.768C703.063 66.296 705.879 57.7627 711.511 50.168C717.143 42.5733 724.78 36.6427 734.423 32.376C744.066 28.024 754.732 25.848 766.423 25.848C776.919 25.848 786.434 27.3413 794.967 30.328C803.5 33.3147 810.54 37.7093 816.087 43.512C821.634 49.2293 825.218 56.1413 826.839 64.248L793.943 64.376C792.236 59.4267 788.823 55.8 783.703 53.496C778.668 51.192 772.951 50.04 766.551 50.04C761.26 50.04 756.439 51.1067 752.087 53.24C747.735 55.288 744.279 58.2747 741.719 62.2C739.244 66.04 738.007 70.5627 738.007 75.768C738.007 81.0587 739.287 85.6667 741.847 89.592C744.407 93.432 747.863 96.376 752.215 98.424C756.567 100.387 761.346 101.368 766.551 101.368C771.756 101.368 776.62 100.387 781.143 98.424C785.666 96.4613 789.207 93.6027 791.767 89.848H766.935V72.952H826.967V84.088L827.095 123Z"/>
</mask>
<path d="M97.509 32.76L96.2471 35.4817L96.262 35.4886L96.2769 35.4953L97.509 32.76ZM119.653 50.552L117.191 52.2668L117.202 52.2826L117.214 52.2983L119.653 50.552ZM119.653 101.368L117.214 99.6217L117.207 99.6309L117.201 99.6401L119.653 101.368ZM97.637 119.16L98.8784 121.891L98.8887 121.886L98.8989 121.882L97.637 119.16ZM34.789 119.16L33.5458 121.89L33.5559 121.895L33.566 121.899L34.789 119.16ZM12.005 101.368L9.58233 103.137L9.59357 103.153L9.605 103.168L12.005 101.368ZM12.005 50.552L9.59529 48.765L9.58878 48.7738L9.58233 48.7826L12.005 50.552ZM34.661 32.76L35.8931 35.4953L35.9042 35.4903L34.661 32.76ZM79.717 98.552L78.4598 95.8281L78.4497 95.8328L78.4396 95.8375L79.717 98.552ZM90.469 89.72L88.0241 87.9814L88.0241 87.9814L90.469 89.72ZM90.341 62.328L87.8783 64.0412L87.8997 64.0719L87.9218 64.1021L90.341 62.328ZM79.589 53.496L78.3318 56.2199L78.3536 56.2299L78.3755 56.2396L79.589 53.496ZM41.317 62.456L38.8543 60.7428L38.8465 60.7541L41.317 62.456ZM41.445 89.72L43.8899 87.9814L43.8899 87.9814L41.445 89.72ZM52.069 98.552L50.7916 101.266L50.8017 101.271L50.8118 101.276L52.069 98.552ZM65.893 29.232C77.2046 29.232 87.3043 31.3355 96.2471 35.4817L98.7709 30.0383C88.9403 25.4805 77.9627 23.232 65.893 23.232V29.232ZM96.2769 35.4953C105.316 39.5671 112.247 45.1699 117.191 52.2668L122.115 48.8372C116.477 40.7448 108.646 34.4862 98.7411 30.0247L96.2769 35.4953ZM117.214 52.2983C122.215 59.2846 124.717 67.1612 124.717 76.024H130.717C130.717 65.9428 127.843 56.8381 122.092 48.8057L117.214 52.2983ZM124.717 76.024C124.717 84.7953 122.219 92.6305 117.214 99.6217L122.092 103.114C127.839 95.0868 130.717 86.026 130.717 76.024H124.717ZM117.201 99.6401C112.25 106.667 105.346 112.279 96.3751 116.438L98.8989 121.882C108.701 117.337 116.475 111.087 122.105 103.096L117.201 99.6401ZM96.3956 116.429C87.4478 120.496 77.3408 122.56 66.021 122.56V128.56C78.0826 128.56 89.0529 126.357 98.8784 121.891L96.3956 116.429ZM66.021 122.56C55.1459 122.56 45.1558 120.503 36.012 116.421L33.566 121.899C43.5369 126.351 54.3681 128.56 66.021 128.56V122.56ZM36.0322 116.43C26.8771 112.261 19.701 106.629 14.405 99.568L9.605 103.168C15.573 111.125 23.5863 117.355 33.5458 121.89L36.0322 116.43ZM14.4277 99.5986C9.25168 92.5115 6.685 84.6817 6.685 76.024H0.685C0.685 85.969 3.66499 95.0352 9.58233 103.137L14.4277 99.5986ZM6.685 76.024C6.685 67.2747 9.25539 59.4034 14.4277 52.3214L9.58233 48.7826C3.66128 56.8899 0.685 65.9999 0.685 76.024H6.685ZM14.4147 52.339C19.7121 45.1955 26.8409 39.5729 35.8931 35.4953L33.4289 30.0247C23.5371 34.4805 15.5619 40.7192 9.59529 48.765L14.4147 52.339ZM35.9042 35.4903C45.0434 31.3287 55.0263 29.232 65.893 29.232V23.232C54.2317 23.232 43.3933 25.4873 33.4178 30.0297L35.9042 35.4903ZM66.021 104.624C71.2443 104.624 76.2455 103.501 80.9944 101.266L78.4396 95.8375C74.4845 97.6988 70.3551 98.624 66.021 98.624V104.624ZM80.9742 101.276C85.8681 99.0171 89.8684 95.7412 92.9139 91.4586L88.0241 87.9814C85.6082 91.3788 82.4405 93.9909 78.4598 95.8281L80.9742 101.276ZM92.9139 91.4586C96.0493 87.0494 97.565 81.858 97.565 76.024H91.565C91.565 80.7714 90.35 84.7106 88.0241 87.9814L92.9139 91.4586ZM97.565 76.024C97.565 70.1696 95.9953 64.9654 92.7602 60.5539L87.9218 64.1021C90.3187 67.3706 91.565 71.297 91.565 76.024H97.565ZM92.8037 60.6148C89.7541 56.231 85.735 52.9341 80.8025 50.7524L78.3755 56.2396C82.3176 57.9832 85.4665 60.5743 87.8783 64.0412L92.8037 60.6148ZM80.8462 50.7721C76.0239 48.5465 70.9878 47.424 65.765 47.424V53.424C70.0995 53.424 74.2794 54.3495 78.3318 56.2199L80.8462 50.7721ZM65.765 47.424C60.4645 47.424 55.4198 48.5433 50.6636 50.7815L53.2184 56.2105C57.1662 54.3527 61.3375 53.424 65.765 53.424V47.424ZM50.6636 50.7815C45.8385 53.0522 41.8873 56.3829 38.8543 60.7428L43.7797 64.1692C46.2081 60.6784 49.3395 58.0358 53.2184 56.2105L50.6636 50.7815ZM38.8465 60.7541C35.8168 65.152 34.349 70.2844 34.349 76.024H40.349C40.349 71.3529 41.5265 67.44 43.7875 64.1579L38.8465 60.7541ZM34.349 76.024C34.349 81.858 35.8647 87.0494 39.0001 91.4586L43.8899 87.9814C41.564 84.7106 40.349 80.7714 40.349 76.024H34.349ZM39.0001 91.4586C42.0361 95.7278 45.9832 99.0037 50.7916 101.266L53.3464 95.8375C49.4508 94.0043 46.3153 91.3922 43.8899 87.9814L39.0001 91.4586ZM50.8118 101.276C55.6414 103.505 60.7208 104.624 66.021 104.624V98.624C61.5932 98.624 57.3713 97.6951 53.3262 95.8281L50.8118 101.276ZM204.874 66.68V63.68H204.86L204.846 63.6801L204.874 66.68ZM226.762 68.472L226.197 71.4183L226.22 71.4227L226.243 71.4267L226.762 68.472ZM242.506 75.768L240.502 78.0001L240.513 78.0102L240.524 78.0201L242.506 75.768ZM231.242 119.032L232.342 121.823L232.353 121.819L231.242 119.032ZM151.498 118.904L150.417 121.703L150.426 121.706L150.434 121.709L151.498 118.904ZM132.938 91.768L132.926 88.768L129.938 88.7797V91.768H132.938ZM165.578 91.64H168.578V88.6282L165.566 88.64L165.578 91.64ZM173.514 102.904L172.635 105.772L172.662 105.781L172.69 105.789L173.514 102.904ZM209.61 102.264L208.487 99.4819L208.479 99.4854L208.47 99.4889L209.61 102.264ZM212.426 87.032L211.312 89.8174L211.312 89.8174L212.426 87.032ZM202.826 84.856L202.602 87.8476L202.602 87.8476L202.826 84.856ZM190.538 84.344L190.592 81.3445L190.565 81.344H190.538V84.344ZM156.874 82.68L156.351 85.634L156.372 85.6377L156.393 85.6412L156.874 82.68ZM139.85 75L137.905 77.2837L137.905 77.2837L139.85 75ZM150.858 31.608L151.813 34.452L151.825 34.4479L150.858 31.608ZM248.906 59.64V62.64H251.906V59.64H248.906ZM216.778 59.64H213.778V62.64H216.778V59.64ZM209.482 50.168L208.259 52.9074L208.288 52.9205L208.318 52.9329L209.482 50.168ZM191.946 46.584L192.057 43.5861L192.002 43.584H191.946V46.584ZM173.258 64.888L173.974 61.9748L173.974 61.9748L173.258 64.888ZM190.922 66.808V69.808H190.936L190.95 69.8079L190.922 66.808ZM204.874 69.68C213.103 69.68 220.202 70.2685 226.197 71.4183L227.327 65.5257C220.864 64.2861 213.37 63.68 204.874 63.68V69.68ZM226.243 71.4267C232.084 72.4529 236.794 74.6712 240.502 78.0001L244.51 73.5359C239.855 69.3554 234.069 66.7097 227.281 65.5172L226.243 71.4267ZM240.524 78.0201C243.982 81.0628 245.906 85.604 245.906 92.152H251.906C251.906 84.364 249.564 77.9826 244.488 73.5159L240.524 78.0201ZM245.906 92.152C245.906 98.3173 244.537 103.257 241.983 107.144C239.435 111.022 235.555 114.084 230.131 116.245L232.353 121.819C238.705 119.287 243.657 115.522 246.997 110.44C250.331 105.367 251.906 99.2134 251.906 92.152H245.906ZM230.142 116.241C218.853 120.691 206.093 122.944 191.818 122.944V128.944C206.727 128.944 220.249 126.589 232.342 121.823L230.142 116.241ZM191.818 122.944C177.64 122.944 164.564 120.652 152.562 116.099L150.434 121.709C163.179 126.543 176.983 128.944 191.818 128.944V122.944ZM152.579 116.105C146.837 113.888 142.738 110.767 140.054 106.842C137.37 102.917 135.938 97.9512 135.938 91.768H129.938C129.938 98.8968 131.6 105.11 135.102 110.23C138.604 115.351 143.785 119.141 150.417 121.703L152.579 116.105ZM132.95 94.768L165.59 94.64L165.566 88.64L132.926 88.768L132.95 94.768ZM162.578 91.64C162.578 95.0283 163.342 98.0909 165.11 100.6C166.889 103.126 169.488 104.808 172.635 105.772L174.393 100.036C172.25 99.3789 170.88 98.3725 170.014 97.1441C169.137 95.8984 168.578 94.1397 168.578 91.64H162.578ZM172.69 105.789C178.397 107.419 184.957 108.208 192.33 108.208V102.208C185.367 102.208 179.383 101.461 174.338 100.019L172.69 105.789ZM192.33 108.208C199.349 108.208 205.518 107.188 210.75 105.039L208.47 99.4889C204.145 101.265 198.794 102.208 192.33 102.208V108.208ZM210.733 105.046C213.517 103.923 215.842 102.35 217.47 100.207C219.125 98.0307 219.906 95.4663 219.906 92.664H213.906C213.906 94.299 213.471 95.5533 212.694 96.5767C211.89 97.634 210.567 98.6427 208.487 99.4819L210.733 105.046ZM219.906 92.664V92.536H213.906V92.664H219.906ZM219.906 92.536C219.906 90.6431 219.316 88.8887 218.113 87.4102C216.949 85.9806 215.344 84.968 213.54 84.2466L211.312 89.8174C212.495 90.2906 213.13 90.7928 213.459 91.1978C213.749 91.554 213.906 91.9542 213.906 92.536H219.906ZM213.54 84.2466C210.251 82.9311 206.749 82.1418 203.05 81.8644L202.602 87.8476C205.729 88.0822 208.627 88.7436 211.312 89.8174L213.54 84.2466ZM203.05 81.8644C199.563 81.6028 195.407 81.4305 190.592 81.3445L190.484 87.3435C195.227 87.4282 199.262 87.5972 202.602 87.8476L203.05 81.8644ZM190.538 81.344H180.938V87.344H190.538V81.344ZM180.938 81.344C171.834 81.344 163.98 80.7954 157.355 79.7188L156.393 85.6412C163.421 86.7832 171.61 87.344 180.938 87.344V81.344ZM157.397 79.726C151.111 78.612 145.946 76.2523 141.795 72.7163L137.905 77.2837C142.97 81.5984 149.154 84.3587 156.351 85.634L157.397 79.726ZM141.795 72.7163C138.029 69.5077 135.938 64.6479 135.938 57.592H129.938C129.938 65.8961 132.455 72.6416 137.905 77.2837L141.795 72.7163ZM135.938 57.592C135.938 51.3828 137.328 46.5267 139.888 42.8152C142.437 39.1179 146.329 36.2929 151.813 34.452L149.903 28.764C143.44 30.9338 138.372 34.4448 134.948 39.4088C131.535 44.3586 129.938 50.4892 129.938 57.592H135.938ZM151.825 34.4479C163.49 30.4768 176.808 28.464 191.818 28.464V22.464C176.279 22.464 162.29 24.5472 149.891 28.768L151.825 34.4479ZM191.818 28.464C205.823 28.464 218.541 30.7554 230.01 35.2936L232.218 29.7144C219.964 24.8659 206.485 22.464 191.818 22.464V28.464ZM230.01 35.2936C235.472 37.4545 239.381 40.5352 241.949 44.4529C244.525 48.3817 245.906 53.3859 245.906 59.64H251.906C251.906 52.4968 250.322 46.2796 246.967 41.1631C243.605 36.0354 238.618 32.2468 232.218 29.7144L230.01 35.2936ZM248.906 56.64H216.778V62.64H248.906V56.64ZM219.778 59.64C219.778 56.8942 218.98 54.3829 217.331 52.2413C215.712 50.1395 213.406 48.5653 210.646 47.4031L208.318 52.9329C210.422 53.8187 211.764 54.8472 212.577 55.9027C213.36 56.9185 213.778 58.1191 213.778 59.64H219.778ZM210.705 47.4286C205.483 45.0972 199.236 43.8519 192.057 43.5861L191.835 49.5819C198.48 49.8281 203.924 50.9721 208.259 52.9074L210.705 47.4286ZM191.946 43.584C184.312 43.584 177.698 44.459 172.181 46.2979L174.079 51.99C178.802 50.4156 184.732 49.584 191.946 49.584V43.584ZM172.181 46.2979C169.353 47.2409 166.935 48.5472 165.198 50.371C163.393 52.2656 162.45 54.5931 162.45 57.208H168.45C168.45 56.1536 168.787 55.3024 169.542 54.509C170.365 53.6448 171.787 52.7538 174.079 51.99L172.181 46.2979ZM162.45 57.208C162.45 59.8857 163.391 62.271 165.298 64.1468C167.123 65.9419 169.645 67.0889 172.542 67.8012L173.974 61.9748C171.666 61.4071 170.283 60.6341 169.506 59.8692C168.81 59.185 168.45 58.3703 168.45 57.208H162.45ZM172.542 67.8012C178.027 69.1501 184.162 69.808 190.922 69.808V63.808C184.541 63.808 178.9 63.1859 173.974 61.9748L172.542 67.8012ZM190.95 69.8079L204.902 69.6799L204.846 63.6801L190.894 63.8081L190.95 69.8079ZM392.169 28.28H395.169V25.28H392.169V28.28ZM392.169 123V126H395.169V123H392.169ZM360.681 123H357.681V126H360.681V123ZM360.681 80.248H363.681L357.985 78.9322L360.681 80.248ZM339.817 123V126H341.691L342.513 124.316L339.817 123ZM310.761 123L308.094 124.373L308.931 126H310.761V123ZM288.489 79.736L291.156 78.3629L285.489 79.736H288.489ZM288.489 123V126H291.489V123H288.489ZM256.873 123H253.873V126H256.873V123ZM256.873 28.28V25.28H253.873V28.28H256.873ZM292.969 28.28L295.658 26.9489L294.831 25.28H292.969V28.28ZM325.225 93.432L322.536 94.7631L325.247 100.237L327.922 94.746L325.225 93.432ZM356.969 28.28V25.28H355.094L354.272 26.966L356.969 28.28ZM389.169 28.28V123H395.169V28.28H389.169ZM392.169 120H360.681V126H392.169V120ZM363.681 123V80.248H357.681V123H363.681ZM357.985 78.9322L337.121 121.684L342.513 124.316L363.377 81.5637L357.985 78.9322ZM339.817 120H310.761V126H339.817V120ZM313.428 121.627L291.156 78.3629L285.822 81.1091L308.094 124.373L313.428 121.627ZM285.489 79.736V123H291.489V79.736H285.489ZM288.489 120H256.873V126H288.489V120ZM259.873 123V28.28H253.873V123H259.873ZM256.873 31.28H292.969V25.28H256.873V31.28ZM290.28 29.6111L322.536 94.7631L327.914 92.1009L295.658 26.9489L290.28 29.6111ZM327.922 94.746L359.666 29.594L354.272 26.966L322.528 92.118L327.922 94.746ZM356.969 31.28H392.169V25.28H356.969V31.28ZM434.364 123V126H437.364V123H434.364ZM402.748 123H399.748V126H402.748V123ZM402.748 28.28V25.28H399.748V28.28H402.748ZM434.364 28.28H437.364V25.28H434.364V28.28ZM434.364 120H402.748V126H434.364V120ZM405.748 123V28.28H399.748V123H405.748ZM402.748 31.28H434.364V25.28H402.748V31.28ZM431.364 28.28V123H437.364V28.28H431.364ZM476.489 123V126H480.653L479.335 122.05L476.489 123ZM444.873 123H441.873V126H444.873V123ZM444.873 28.28L447.719 27.3302L441.873 28.28H444.873ZM534.345 86.264L532.221 88.383L537.345 93.518V86.264H534.345ZM534.345 28.28V25.28H531.345V28.28H534.345ZM565.833 28.28H568.833V25.28H565.833V28.28ZM565.833 123V126H568.833V123H565.833ZM534.345 123L532.221 125.119L533.1 126H534.345V123ZM476.489 65.016L478.613 62.897L473.489 57.762V65.016H476.489ZM476.489 123V126H479.489V123H476.489ZM444.873 123H441.873V126H444.873V123ZM444.873 28.28V25.28H441.873V28.28H444.873ZM476.489 28.28L478.613 26.161L477.734 25.28H476.489V28.28ZM476.489 120H444.873V126H476.489V120ZM447.873 123V28.28H441.873V123H447.873ZM442.027 29.2298L473.643 123.95L479.335 122.05L447.719 27.3302L442.027 29.2298ZM565.833 120H534.345V126H565.833V120ZM534.345 126H565.833V120H534.345V126ZM537.345 86.264V28.28H531.345V86.264H537.345ZM534.345 31.28H565.833V25.28H534.345V31.28ZM562.833 28.28V123H568.833V28.28H562.833ZM565.833 120H534.345V126H565.833V120ZM536.469 120.881L478.613 62.897L474.365 67.135L532.221 125.119L536.469 120.881ZM473.489 65.016V123H479.489V65.016H473.489ZM476.489 120H444.873V126H476.489V120ZM447.873 123V28.28H441.873V123H447.873ZM444.873 31.28H476.489V25.28H444.873V31.28ZM474.365 30.399L532.221 88.383L536.469 84.145L478.613 26.161L474.365 30.399ZM667.634 32.76L666.372 35.4817L666.387 35.4886L666.402 35.4953L667.634 32.76ZM689.778 50.552L687.316 52.2668L687.327 52.2826L687.339 52.2983L689.778 50.552ZM689.778 101.368L687.339 99.6217L687.332 99.6309L687.326 99.6401L689.778 101.368ZM667.762 119.16L669.003 121.891L669.014 121.886L669.024 121.882L667.762 119.16ZM604.914 119.16L603.671 121.89L603.681 121.895L603.691 121.899L604.914 119.16ZM582.13 101.368L579.707 103.137L579.719 103.153L579.73 103.168L582.13 101.368ZM582.13 50.552L579.72 48.765L579.714 48.7738L579.707 48.7826L582.13 50.552ZM604.786 32.76L606.018 35.4953L606.029 35.4903L604.786 32.76ZM649.842 98.552L648.585 95.8281L648.575 95.8328L648.565 95.8375L649.842 98.552ZM660.594 89.72L658.149 87.9814L658.149 87.9814L660.594 89.72ZM660.466 62.328L658.003 64.0412L658.025 64.0719L658.047 64.1021L660.466 62.328ZM649.714 53.496L648.457 56.2199L648.479 56.2299L648.5 56.2396L649.714 53.496ZM611.442 62.456L608.979 60.7428L608.971 60.7541L611.442 62.456ZM611.57 89.72L614.015 87.9814L614.015 87.9814L611.57 89.72ZM622.194 98.552L620.917 101.266L620.927 101.271L620.937 101.276L622.194 98.552ZM636.018 29.232C647.33 29.232 657.429 31.3355 666.372 35.4817L668.896 30.0383C659.065 25.4805 648.088 23.232 636.018 23.232V29.232ZM666.402 35.4953C675.441 39.5671 682.372 45.1699 687.316 52.2668L692.24 48.8372C686.602 40.7448 678.771 34.4862 668.866 30.0247L666.402 35.4953ZM687.339 52.2983C692.34 59.2846 694.842 67.1612 694.842 76.024H700.842C700.842 65.9428 697.968 56.8381 692.217 48.8057L687.339 52.2983ZM694.842 76.024C694.842 84.7953 692.344 92.6305 687.339 99.6217L692.217 103.114C697.964 95.0868 700.842 86.026 700.842 76.024H694.842ZM687.326 99.6401C682.375 106.667 675.471 112.279 666.5 116.438L669.024 121.882C678.826 117.337 686.6 111.087 692.23 103.096L687.326 99.6401ZM666.521 116.429C657.573 120.496 647.466 122.56 636.146 122.56V128.56C648.208 128.56 659.178 126.357 669.003 121.891L666.521 116.429ZM636.146 122.56C625.271 122.56 615.281 120.503 606.137 116.421L603.691 121.899C613.662 126.351 624.493 128.56 636.146 128.56V122.56ZM606.157 116.43C597.002 112.261 589.826 106.629 584.53 99.568L579.73 103.168C585.698 111.125 593.711 117.355 603.671 121.89L606.157 116.43ZM584.553 99.5986C579.377 92.5115 576.81 84.6817 576.81 76.024H570.81C570.81 85.969 573.79 95.0352 579.707 103.137L584.553 99.5986ZM576.81 76.024C576.81 67.2747 579.38 59.4034 584.553 52.3214L579.707 48.7826C573.786 56.8899 570.81 65.9999 570.81 76.024H576.81ZM584.54 52.339C589.837 45.1955 596.966 39.5729 606.018 35.4953L603.554 30.0247C593.662 34.4805 585.687 40.7192 579.72 48.765L584.54 52.339ZM606.029 35.4903C615.168 31.3287 625.151 29.232 636.018 29.232V23.232C624.357 23.232 613.518 25.4873 603.543 30.0297L606.029 35.4903ZM636.146 104.624C641.369 104.624 646.371 103.501 651.119 101.266L648.565 95.8375C644.61 97.6988 640.48 98.624 636.146 98.624V104.624ZM651.099 101.276C655.993 99.0171 659.993 95.7412 663.039 91.4586L658.149 87.9814C655.733 91.3788 652.566 93.9909 648.585 95.8281L651.099 101.276ZM663.039 91.4586C666.174 87.0494 667.69 81.858 667.69 76.024H661.69C661.69 80.7714 660.475 84.7106 658.149 87.9814L663.039 91.4586ZM667.69 76.024C667.69 70.1696 666.12 64.9654 662.885 60.5539L658.047 64.1021C660.444 67.3706 661.69 71.297 661.69 76.024H667.69ZM662.929 60.6148C659.879 56.231 655.86 52.9341 650.928 50.7524L648.5 56.2396C652.443 57.9832 655.592 60.5743 658.003 64.0412L662.929 60.6148ZM650.971 50.7721C646.149 48.5465 641.113 47.424 635.89 47.424V53.424C640.225 53.424 644.404 54.3495 648.457 56.2199L650.971 50.7721ZM635.89 47.424C630.59 47.424 625.545 48.5433 620.789 50.7815L623.343 56.2105C627.291 54.3527 631.462 53.424 635.89 53.424V47.424ZM620.789 50.7815C615.963 53.0522 612.012 56.3829 608.979 60.7428L613.905 64.1692C616.333 60.6784 619.465 58.0358 623.343 56.2105L620.789 50.7815ZM608.971 60.7541C605.942 65.152 604.474 70.2844 604.474 76.024H610.474C610.474 71.3529 611.652 67.44 613.913 64.1579L608.971 60.7541ZM604.474 76.024C604.474 81.858 605.99 87.0494 609.125 91.4586L614.015 87.9814C611.689 84.7106 610.474 80.7714 610.474 76.024H604.474ZM609.125 91.4586C612.161 95.7278 616.108 99.0037 620.917 101.266L623.471 95.8375C619.576 94.0043 616.44 91.3922 614.015 87.9814L609.125 91.4586ZM620.937 101.276C625.766 103.505 630.846 104.624 636.146 104.624V98.624C631.718 98.624 627.496 97.6951 623.451 95.8281L620.937 101.276ZM827.095 123V126H830.105L830.095 122.99L827.095 123ZM807.255 123L804.409 123.949L805.093 126H807.255V123ZM804.823 115.704L807.669 114.755L806.477 111.178L803.259 113.144L804.823 115.704ZM734.295 119.032L735.529 116.298L734.295 119.032ZM711.383 101.112L708.96 102.881L708.967 102.89L708.973 102.899L711.383 101.112ZM711.511 50.168L713.921 51.955L713.921 51.955L711.511 50.168ZM734.423 32.376L735.637 35.1194L735.647 35.115L735.657 35.1104L734.423 32.376ZM794.967 30.328L793.976 33.1596L793.976 33.1596L794.967 30.328ZM816.087 43.512L813.918 45.5849L813.926 45.593L813.934 45.6009L816.087 43.512ZM826.839 64.248L826.851 67.248L830.496 67.2338L829.781 63.6596L826.839 64.248ZM793.943 64.376L791.107 65.354L791.807 67.3843L793.955 67.376L793.943 64.376ZM783.703 53.496L782.455 56.2239L782.463 56.2279L782.472 56.2318L783.703 53.496ZM752.087 53.24L753.364 55.9545L753.386 55.9443L753.407 55.9338L752.087 53.24ZM741.719 62.2L739.206 60.5612L739.202 60.568L739.197 60.5749L741.719 62.2ZM741.847 89.592L739.334 91.2308L739.342 91.2435L739.351 91.2561L741.847 89.592ZM752.215 98.424L750.938 101.138L750.96 101.149L750.982 101.159L752.215 98.424ZM781.143 98.424L782.337 101.176L782.337 101.176L781.143 98.424ZM791.767 89.848L794.246 91.538L797.443 86.848H791.767V89.848ZM766.935 89.848H763.935V92.848H766.935V89.848ZM766.935 72.952V69.952H763.935V72.952H766.935ZM826.967 72.952H829.967V69.952H826.967V72.952ZM826.967 84.088L823.967 84.088L823.967 84.0979L826.967 84.088ZM827.095 120H807.255V126H827.095V120ZM810.101 122.051L807.669 114.755L801.977 116.653L804.409 123.949L810.101 122.051ZM803.259 113.144C793.056 119.379 780.819 122.56 766.423 122.56V128.56C781.723 128.56 795.086 125.17 806.387 118.264L803.259 113.144ZM766.423 122.56C755.024 122.56 744.742 120.456 735.529 116.298L733.061 121.766C743.133 126.312 754.27 128.56 766.423 128.56V122.56ZM735.529 116.298C726.296 112.131 719.085 106.462 713.793 99.325L708.973 102.899C714.945 110.952 723.008 117.229 733.061 121.766L735.529 116.298ZM713.806 99.3426C708.63 92.2555 706.063 84.4257 706.063 75.768H700.063C700.063 85.713 703.043 94.7792 708.96 102.881L713.806 99.3426ZM706.063 75.768C706.063 66.9383 708.673 59.0317 713.921 51.955L709.101 48.381C703.085 56.4936 700.063 65.6537 700.063 75.768H706.063ZM713.921 51.955C719.209 44.8237 726.413 39.2008 735.637 35.1194L733.209 29.6326C723.148 34.0845 715.077 40.323 709.101 48.381L713.921 51.955ZM735.657 35.1104C744.873 30.9511 755.113 28.848 766.423 28.848V22.848C754.352 22.848 743.258 25.0969 733.189 29.6416L735.657 35.1104ZM766.423 28.848C776.635 28.848 785.808 30.3007 793.976 33.1596L795.958 27.4964C787.06 24.3819 777.203 22.848 766.423 22.848V28.848ZM793.976 33.1596C802.119 36.0098 808.738 40.1657 813.918 45.5849L818.256 41.439C812.342 35.253 804.881 30.6195 795.958 27.4964L793.976 33.1596ZM813.934 45.6009C819.063 50.8881 822.385 57.2727 823.897 64.8363L829.781 63.6596C828.051 55.01 824.204 47.5706 818.24 41.4231L813.934 45.6009ZM826.827 61.248L793.931 61.376L793.955 67.376L826.851 67.248L826.827 61.248ZM796.779 63.398C794.782 57.6054 790.748 53.3763 784.934 50.7602L782.472 56.2318C786.898 58.2237 789.691 61.248 791.107 65.354L796.779 63.398ZM784.951 50.7681C779.468 48.2589 773.315 47.04 766.551 47.04V53.04C772.587 53.04 777.868 54.1251 782.455 56.2239L784.951 50.7681ZM766.551 47.04C760.845 47.04 755.566 48.1935 750.767 50.5462L753.407 55.9338C757.312 54.0199 761.675 53.04 766.551 53.04V47.04ZM750.81 50.5255C745.968 52.804 742.079 56.1569 739.206 60.5612L744.232 63.8388C746.479 60.3924 749.502 57.772 753.364 55.9545L750.81 50.5255ZM739.197 60.5749C736.368 64.9644 735.007 70.0688 735.007 75.768H741.007C741.007 71.0565 742.12 67.1156 744.241 63.8251L739.197 60.5749ZM735.007 75.768C735.007 81.5632 736.416 86.757 739.334 91.2308L744.36 87.9532C742.158 84.5763 741.007 80.5541 741.007 75.768H735.007ZM739.351 91.2561C742.227 95.5703 746.113 98.8681 750.938 101.138L753.492 95.7095C749.613 93.8839 746.587 91.2937 744.343 87.9279L739.351 91.2561ZM750.982 101.159C755.755 103.312 760.959 104.368 766.551 104.368V98.368C761.732 98.368 757.379 97.4618 753.448 95.6892L750.982 101.159ZM766.551 104.368C772.144 104.368 777.417 103.311 782.337 101.176L779.949 95.672C775.824 97.462 771.369 98.368 766.551 98.368V104.368ZM782.337 101.176C787.334 99.0077 791.339 95.8006 794.246 91.538L789.288 88.158C787.075 91.4048 783.997 93.915 779.949 95.672L782.337 101.176ZM791.767 86.848H766.935V92.848H791.767V86.848ZM769.935 89.848V72.952H763.935V89.848H769.935ZM766.935 75.952H826.967V69.952H766.935V75.952ZM823.967 72.952V84.088H829.967V72.952H823.967ZM823.967 84.0979L824.095 123.01L830.095 122.99L829.967 84.0781L823.967 84.0979Z" fill="#FFDFDF" mask="url(#path-1-outside-1_3_311)"/>
<path d="M76.8 176.28C84.736 176.28 91.7333 177.603 97.792 180.248C103.936 182.893 108.672 186.605 112 191.384C115.413 196.077 117.12 201.539 117.12 207.768V208.28C117.12 218.52 113.621 226.456 106.624 232.088C99.6267 237.635 90.0693 240.408 77.952 240.408H36.864V271H5.248V176.28H76.8ZM71.168 218.008C75.6053 218.008 78.8907 217.88 81.024 217.624C83.2427 217.368 85.0773 216.557 86.528 215.192C87.9787 213.827 88.704 211.565 88.704 208.408C88.704 205.165 87.9787 202.819 86.528 201.368C85.0773 199.917 83.2 199.021 80.896 198.68C78.592 198.339 75.3493 198.168 71.168 198.168H66.944C65.2373 198.168 62.2507 198.211 57.984 198.296C53.7173 198.296 46.6773 198.296 36.864 198.296V218.008H71.04H71.168ZM201.03 270.872L174.79 240.28H155.206V270.872H124.998V176.152H196.55C204.486 176.152 211.483 177.475 217.542 180.12C223.686 182.765 228.422 186.477 231.75 191.256C235.163 195.949 236.87 201.411 236.87 207.64V208.152C236.87 216.259 234.481 222.957 229.702 228.248C225.009 233.539 218.481 237.08 210.118 238.872L237.638 270.872H201.03ZM207.174 208.408C207.174 205.08 206.449 202.648 204.998 201.112C203.633 199.576 201.841 198.637 199.622 198.296C197.403 197.955 194.161 197.784 189.894 197.784H185.286C178.971 197.955 168.945 198.04 155.206 198.04V218.392H189.638H189.894C194.161 218.392 197.403 218.221 199.622 217.88C201.841 217.539 203.633 216.685 204.998 215.32C206.449 213.869 207.174 211.565 207.174 208.408ZM305.018 174.232C316.709 174.232 327.247 176.408 336.634 180.76C346.106 185.027 353.487 190.957 358.778 198.552C364.154 206.061 366.842 214.552 366.842 224.024C366.842 233.411 364.154 241.859 358.778 249.368C353.487 256.877 346.149 262.808 336.762 267.16C327.375 271.427 316.837 273.56 305.146 273.56C293.882 273.56 283.471 271.427 273.914 267.16C264.357 262.808 256.762 256.877 251.13 249.368C245.583 241.773 242.81 233.325 242.81 224.024C242.81 214.637 245.583 206.147 251.13 198.552C256.762 190.957 264.314 185.027 273.786 180.76C283.343 176.408 293.754 174.232 305.018 174.232ZM305.146 249.624C309.925 249.624 314.49 248.6 318.842 246.552C323.279 244.504 326.863 241.56 329.594 237.72C332.325 233.88 333.69 229.315 333.69 224.024C333.69 218.733 332.282 214.168 329.466 210.328C326.735 206.403 323.151 203.459 318.714 201.496C314.277 199.448 309.669 198.424 304.89 198.424C300.026 198.424 295.418 199.448 291.066 201.496C286.714 203.544 283.173 206.531 280.442 210.456C277.797 214.296 276.474 218.819 276.474 224.024C276.474 229.315 277.839 233.88 280.57 237.72C283.301 241.56 286.842 244.504 291.194 246.552C295.631 248.6 300.282 249.624 305.146 249.624ZM469.215 176.28V233.24C469.215 239.384 467.807 245.272 464.991 250.904C462.26 256.536 457.226 261.315 449.887 265.24C442.634 269.08 432.692 271 420.063 271C408.116 271 398.559 268.611 391.391 263.832C384.223 259.053 379.188 253.507 376.287 247.192C373.471 240.877 372.063 235.117 372.063 229.912H401.759C401.759 235.117 403.423 239.597 406.751 243.352C410.079 247.107 414.986 248.984 421.471 248.984C426.42 248.984 430.516 247.576 433.759 244.76C437.002 241.859 438.623 238.019 438.623 233.24V176.28H469.215ZM570.5 234.136H511.364V248.6L581.252 248.088V271H479.748V176.28H581.252L581.38 199.192H511.364V211.736H570.5V234.136ZM587.438 223.768C587.438 214.296 590.211 205.763 595.758 198.168C601.39 190.573 609.027 184.643 618.67 180.376C628.398 176.024 639.15 173.848 650.926 173.848C661.507 173.848 671.065 175.555 679.598 178.968C688.131 182.296 695.129 187.032 700.59 193.176C706.051 199.235 709.678 206.36 711.47 214.552H678.702C677.422 211.139 675.246 208.195 672.174 205.72C669.187 203.16 665.817 201.24 662.062 199.96C658.307 198.68 654.638 198.04 651.054 198.04C646.019 198.04 641.113 199.064 636.334 201.112C631.641 203.16 627.801 206.147 624.814 210.072C621.913 213.912 620.462 218.477 620.462 223.768C620.462 229.059 621.913 233.667 624.814 237.592C627.715 241.432 631.47 244.376 636.078 246.424C640.771 248.387 645.763 249.368 651.054 249.368C656.942 249.368 662.361 247.96 667.31 245.144C672.345 242.328 676.057 238.317 678.446 233.112H711.342C709.465 241.219 705.795 248.344 700.334 254.488C694.873 260.547 687.918 265.24 679.47 268.568C671.022 271.896 661.507 273.56 650.926 273.56C639.235 273.56 628.526 271.384 618.798 267.032C609.155 262.68 601.518 256.707 595.886 249.112C590.254 241.517 587.438 233.069 587.438 223.768ZM715.828 201.88V176.28H827.7L715.828 201.88ZM827.7 176.28V202.008H787.764V271H756.276V202.008H715.828V176.28H827.7Z" fill="white"/>
</g>
<defs>
<clipPath id="clip0_3_311">
<rect width="830" height="281" fill="white"/>
</clipPath>
</defs>
</svg>
