<svg width="18" height="18" viewBox="0 0 18 18" fill="none" xmlns="http://www.w3.org/2000/svg">
<path d="M16.4444 14.6282C16.0391 13.6246 15.451 12.713 14.7128 11.9441C13.9768 11.1731 13.1049 10.5583 12.1454 10.1338C12.1368 10.1293 12.1282 10.1271 12.1196 10.1226C13.4581 9.11182 14.3282 7.46543 14.3282 5.60791C14.3282 2.53076 11.9434 0.0375977 9.00005 0.0375977C6.05669 0.0375977 3.67193 2.53076 3.67193 5.60791C3.67193 7.46543 4.54205 9.11182 5.88052 10.1248C5.87193 10.1293 5.86334 10.1315 5.85474 10.136C4.89224 10.5605 4.02857 11.1692 3.28736 11.9464C2.54981 12.7158 1.96177 13.6273 1.55572 14.6305C1.1568 15.6126 0.941656 16.6655 0.921929 17.7323C0.921355 17.7563 0.925377 17.7801 0.933758 17.8025C0.942138 17.8248 0.954707 17.8451 0.970725 17.8623C0.986742 17.8795 1.00588 17.8931 1.02702 17.9024C1.04816 17.9117 1.07087 17.9165 1.0938 17.9165H2.38287C2.4774 17.9165 2.55259 17.8379 2.55474 17.7413C2.59771 16.0073 3.26373 14.3834 4.44107 13.1525C5.65923 11.879 7.27701 11.1782 9.00005 11.1782C10.7231 11.1782 12.3409 11.879 13.559 13.1525C14.7364 14.3834 15.4024 16.0073 15.4454 17.7413C15.4475 17.8401 15.5227 17.9165 15.6172 17.9165H16.9063C16.9292 17.9165 16.952 17.9117 16.9731 17.9024C16.9942 17.8931 17.0134 17.8795 17.0294 17.8623C17.0454 17.8451 17.058 17.8248 17.0664 17.8025C17.0747 17.7801 17.0788 17.7563 17.0782 17.7323C17.0567 16.6587 16.844 15.6143 16.4444 14.6282ZM9.00005 9.47119C8.01392 9.47119 7.0858 9.06914 6.38755 8.33916C5.68931 7.60918 5.30474 6.63887 5.30474 5.60791C5.30474 4.57695 5.68931 3.60664 6.38755 2.87666C7.0858 2.14668 8.01392 1.74463 9.00005 1.74463C9.98619 1.74463 10.9143 2.14668 11.6126 2.87666C12.3108 3.60664 12.6954 4.57695 12.6954 5.60791C12.6954 6.63887 12.3108 7.60918 11.6126 8.33916C10.9143 9.06914 9.98619 9.47119 9.00005 9.47119Z" fill="#222222"/>
</svg>
