<svg width="35" height="35" viewBox="0 0 35 35" fill="none" xmlns="http://www.w3.org/2000/svg">
<path d="M17.1716 8.363C12.2946 8.363 8.3587 12.2989 8.3587 17.1759C8.3587 22.0528 12.2946 25.9888 17.1716 25.9888C22.0485 25.9888 25.9845 22.0528 25.9845 17.1759C25.9845 12.2989 22.0485 8.363 17.1716 8.363ZM17.1716 22.9036C14.0177 22.9036 11.4439 20.3298 11.4439 17.1759C11.4439 14.022 14.0177 11.4482 17.1716 11.4482C20.3255 11.4482 22.8993 14.022 22.8993 17.1759C22.8993 20.3298 20.3255 22.9036 17.1716 22.9036ZM26.3454 5.94815C25.2067 5.94815 24.2872 6.86768 24.2872 8.00636C24.2872 9.14503 25.2067 10.0646 26.3454 10.0646C27.4841 10.0646 28.4036 9.14933 28.4036 8.00636C28.404 7.73597 28.351 7.46818 28.2476 7.21832C28.1443 6.96845 27.9927 6.74142 27.8015 6.55023C27.6104 6.35904 27.3833 6.20745 27.1335 6.10413C26.8836 6.00082 26.6158 5.94781 26.3454 5.94815ZM34.3505 17.1759C34.3505 14.804 34.372 12.4536 34.2388 10.086C34.1056 7.33604 33.4782 4.89542 31.4673 2.88448C29.4521 0.869247 27.0157 0.2462 24.2657 0.112997C21.8939 -0.0202064 19.5435 0.00127808 17.1759 0.00127808C14.804 0.00127808 12.4536 -0.0202064 10.086 0.112997C7.33604 0.2462 4.89542 0.873544 2.88448 2.88448C0.869247 4.89972 0.2462 7.33604 0.112997 10.086C-0.0202064 12.4579 0.00127808 14.8083 0.00127808 17.1759C0.00127808 19.5435 -0.0202064 21.8982 0.112997 24.2657C0.2462 27.0157 0.873544 29.4564 2.88448 31.4673C4.89972 33.4825 7.33604 34.1056 10.086 34.2388C12.4579 34.372 14.8083 34.3505 17.1759 34.3505C19.5478 34.3505 21.8982 34.372 24.2657 34.2388C27.0157 34.1056 29.4564 33.4782 31.4673 31.4673C33.4825 29.4521 34.1056 27.0157 34.2388 24.2657C34.3763 21.8982 34.3505 19.5478 34.3505 17.1759ZM30.5692 27.3079C30.2556 28.09 29.8774 28.6743 29.2716 29.2759C28.6657 29.8817 28.0857 30.2599 27.3036 30.5735C25.0435 31.4716 19.6767 31.2696 17.1716 31.2696C14.6665 31.2696 9.29542 31.4716 7.03526 30.5778C6.25323 30.2642 5.66886 29.886 5.06729 29.2802C4.46143 28.6743 4.08331 28.0942 3.76964 27.3122C2.87589 25.0478 3.07784 19.681 3.07784 17.1759C3.07784 14.6708 2.87589 9.29972 3.76964 7.03956C4.08331 6.25753 4.46143 5.67315 5.06729 5.07159C5.67315 4.47003 6.25323 4.08761 7.03526 3.77393C9.29542 2.88018 14.6665 3.08214 17.1716 3.08214C19.6767 3.08214 25.0478 2.88018 27.3079 3.77393C28.09 4.08761 28.6743 4.46573 29.2759 5.07159C29.8817 5.67745 30.2599 6.25753 30.5735 7.03956C31.4673 9.29972 31.2653 14.6708 31.2653 17.1759C31.2653 19.681 31.4673 25.0478 30.5692 27.3079Z" fill="white"/>
</svg>
