<svg width="46" height="31" viewBox="0 0 46 31" fill="none" xmlns="http://www.w3.org/2000/svg">
<path d="M0 4.26479C0 2.52219 1.18182 1.83432 2.63636 1.7426L9.40909 1.78846C9.81818 1.78846 10.1818 2.06361 10.3182 2.47633C11.8636 7.52071 13.7727 10.6391 16.0455 14.1701C16.1818 14.4453 16.4091 14.5828 16.6364 14.5828C16.8182 14.5828 17 14.4911 17.1364 14.2618L17.2727 13.7574L17.3182 5.82396C17.3182 4.67752 16.7727 4.49408 15.5 4.31065C15 4.21894 14.6818 3.76035 14.6818 3.30178C14.6818 3.21006 14.6818 3.11834 14.7273 3.02663C15.3636 1.05473 17.3636 0.045858 20.1818 0.045858L22.7273 0C24.8182 0 26.7273 0.91716 26.7273 3.62278V14.0325C26.9091 14.1701 27.0909 14.2618 27.3182 14.2618C27.6818 14.2618 28.1364 14.0325 28.5 13.4364C30.8636 10.0888 33.5455 6.09911 33.9091 3.98965C33.9091 3.89793 33.9545 3.85207 34 3.76035C34.5 2.75148 35.7727 2.06361 36.3182 1.88018C36.4091 1.83432 36.5455 1.78846 36.7273 1.78846H43.7727L44.2273 1.83432C44.9091 1.83432 45.4091 2.2929 45.6364 2.70562C46.0455 3.34763 45.9545 4.0355 46 4.31065V4.63166C45.3182 8.80473 40.5909 13.4822 38.5909 16.5089C38.3182 16.8757 38.1818 17.1967 38.1818 17.5178C38.1818 17.7929 38.3182 18.068 38.5455 18.3432L45.1818 26.7811C45.5455 27.2855 45.7273 27.8817 45.7273 28.3861C45.7273 29.8994 44.3182 30.7707 42.9545 30.9083L42.1818 30.9541H35.2727C35.1364 30.9541 35.0455 31 34.9091 31C34.1364 31 33.5 30.5873 33.0455 30.1287C31.5909 28.3402 30.1818 26.5059 28.7727 24.7175C28.5 24.3506 28.4091 24.3047 28.1364 24.1213C27.8182 25.4512 27.5455 26.8269 27.2273 28.2027L27.0909 28.9822C26.8636 29.8077 26.2727 30.679 25.1818 30.9083L24.5455 30.9541H20.0909C12.2273 30.9541 5.18182 19.6731 0.227273 5.59467C0.0909091 5.22781 0 4.72337 0 4.26479ZM27.3182 16.142C26.1364 16.142 24.8182 15.4541 24.8182 14.1701V3.62278C24.8182 2.38462 24.2727 1.92604 22.7727 1.92604L20.1818 2.01775C18.7273 2.01775 17.9091 2.24704 17.2273 2.70562C18.2727 3.21006 19.2273 3.89793 19.2273 5.82396V13.895C19.0909 15.5 17.7727 16.5547 16.5 16.5547C15.6364 16.5547 14.8636 16.0503 14.4091 15.2249C12.3636 12.1065 10.6364 9.1716 9.13636 4.95266L8.72727 3.76035L2.68182 3.7145C1.86364 3.7145 1.95455 3.76035 1.95455 4.17308C1.95455 4.44823 2 4.81509 2.04545 5.04438L3 7.61243C7.95455 20.5444 14.1818 29.0281 20.0909 29.0281H24.6364C25.2727 29.0281 25.2273 28.2485 25.3636 27.7899L26.2273 23.7544C26.4091 23.3417 26.5455 22.9749 26.8636 22.6538C27.2273 22.287 27.6364 22.1494 28.0455 22.1494C28.9091 22.1494 29.7273 22.8373 30.2727 23.4793L34.1364 28.432C34.4545 28.9364 34.7273 29.0281 34.9091 29.0281H42.4091C43.1364 29.0281 43.7727 28.7988 43.7727 28.3402C43.7727 28.2027 43.7273 28.0192 43.6364 27.8817L37.0455 19.5814C36.5 18.8935 36.2727 18.2056 36.2727 17.5178C36.2727 16.784 36.5455 16.0503 37 15.4083C38.9091 12.5192 43 8.39201 43.9545 4.99852L44.0909 4.40237C44.0455 4.17308 44.0455 3.98965 44 3.76035H36.8636C36.4091 3.94379 36.0455 4.21894 35.7727 4.5858L35.5 5.4571C34.4545 8.39201 31.5909 12.4275 29.5455 15.2249C28.8636 15.8669 28.0909 16.142 27.3182 16.142Z" fill="white"/>
</svg>
